<svg xmlns="http://www.w3.org/2000/svg" xml:space="preserve" x="0" y="0" version="1.1" viewBox="0 0 300 180"><path d="M48.6 83.1h20c5.5 0 10 4.5 10 10s-4.5 10-10 10h-20c-5.5 0-10-4.5-10-10s4.5-10 10-10zM53 120h5c5.5 0 10 4.5 10 10s-4.5 10-10 10h-5c-5.5 0-10-4.5-10-10s4.5-10 10-10z"/><path d="M20 120H0V50C0 22.4 22.4 0 50 0h200c27.6 0 50 22.4 50 50v80c0 27.6-22.4 50-50 50H50c-27.6 0-50-22.4-50-50v-20h20v20c0 16.6 13.4 30 30 30h200c16.6 0 30-13.4 30-30V50c0-16.6-13.4-30-30-30H50c-16.6 0-30 13.4-30 30v70z"/><path d="M145.1 40h20c5.5 0 10 4.5 10 10s-4.5 10-10 10h-20c-5.5 0-10-4.5-10-10s4.5-10 10-10zm64.5 0h40c5.5 0 10 4.5 10 10s-4.5 10-10 10h-40c-5.5 0-10-4.5-10-10s4.5-10 10-10zm-161 0h5c5.5 0 10 4.5 10 10s-4.5 10-10 10h-5c-5.5 0-10-4.5-10-10s4.5-10 10-10zM97 40c5.5 0 10 4.5 10 10s-4.5 10-10 10-10-4.5-10-10 4.5-10 10-10zm141.2 43.1h5c5.5 0 10 4.5 10 10s-4.5 10-10 10h-5c-5.5 0-10-4.5-10-10s4.5-10 10-10zM226.5 120h20c5.5 0 10 4.5 10 10s-4.5 10-10 10h-20c-5.5 0-10-4.5-10-10s4.5-10 10-10z"/><path d="M128.9 70.4c6.1 0 11.4 2.2 15.8 6.6 4.4 4.4 6.6 9.8 6.6 16.2 0 6.3-2.2 11.7-6.5 16-4.3 4.4-9.6 6.6-15.8 6.6-6.5 0-11.9-2.2-16.2-6.7-4.3-4.5-6.4-9.8-6.4-16 0-4.1 1-7.9 3-11.4s4.8-6.2 8.3-8.3c3.4-2 7.1-3 11.2-3zm-.1 8c-4 0-7.4 1.4-10.1 4.2-2.7 2.8-4.1 6.3-4.1 10.6 0 4.8 1.7 8.6 5.2 11.4 2.7 2.2 5.7 3.3 9.2 3.3 3.9 0 7.2-1.4 10-4.2 2.7-2.8 4.1-6.3 4.1-10.4 0-4.1-1.4-7.6-4.2-10.5-2.8-2.9-6.2-4.4-10.1-4.4zm30.3-6.9h7.9l18.5 28.5V71.5h8.2v43.3h-7.9l-18.5-28.4v28.4h-8.2V71.5z" stroke="#000" stroke-miterlimit="10" stroke-width="4"/><path d="M100.7 121.3h3.8c2 0 3.5.2 4.4.6.9.4 1.6 1 2.1 1.8s.8 1.9.8 3c0 1.3-.3 2.4-1 3.2s-1.6 1.5-2.8 1.8c-.7.2-1.9.3-3.7.3v7.9h-3.6v-18.6zm3.5 7.3h1.1c.9 0 1.5-.1 1.9-.2.3-.1.6-.3.8-.6s.3-.6.3-1.1c0-.7-.3-1.2-.8-1.6-.4-.2-1.2-.4-2.3-.4h-1v3.9zm16.8-7.3h3.6l7.2 18.7h-3.7l-1.5-3.8H119l-1.5 3.8h-3.7l7.2-18.7zm1.8 5-2.5 6.4h5l-2.5-6.4zm11.9-5h3.8c2.1 0 3.5.2 4.4.6.9.4 1.6 1 2.1 1.8.5.9.8 1.9.8 3 0 1.2-.3 2.3-.9 3.1-.6.8-1.5 1.5-2.7 1.9l4.4 8.3h-3.9l-4.2-7.9h-.3v7.9h-3.6v-18.7zm3.6 7.3h1.1c1.1 0 1.9-.1 2.3-.4.4-.3.6-.8.6-1.5 0-.4-.1-.8-.3-1.1-.2-.3-.5-.5-.8-.7-.4-.1-1-.2-1.9-.2h-1v3.9zm13.1-7.3h3.5l4.3 13 4.4-13h3.5l3.1 18.7h-3.4l-2-11.8-4 11.8h-3.1l-3.9-11.8-2 11.8h-3.5l3.1-18.7zm27.3 0h3.6l7.2 18.7h-3.7l-1.5-3.8h-7.6l-1.5 3.8h-3.7l7.2-18.7zm1.8 5-2.5 6.4h5l-2.5-6.4zm11.7-5h3.6v6.4l5.1-6.4h4.3l-6.5 8.3 7.2 10.3h-4.2l-5.8-8.3v8.3h-3.6v-18.6z" stroke="#000" stroke-miterlimit="10" stroke-width=".25"/></svg>